<svg xmlns="http://www.w3.org/2000/svg" viewBox="0 0 24 24" fill="currentColor">
  <path d="M12 10.8c-1.087-2.114-4.046-6.053-6.798-7.995C2.566.944 1.561 1.266.902 1.565.139 1.908 0 3.08 0 3.768c0 .69.378 5.65.624 6.479.785 2.643 3.593 3.515 6.206 3.265-.027.013-.054.025-.08.038-2.828 1.356-6.123 3.586-3.474 8.45 2.913 5.348 5.157-.479 8.724-6.146 3.567 5.667 5.265 10.904 8.724 6.146 2.649-4.864-.646-7.094-3.474-8.45-.027-.013-.054-.025-.08-.038 2.613.25 5.421-.622 6.206-3.265C23.622 9.418 24 4.458 24 3.768c0-.69-.139-1.861-.902-2.203-.659-.299-1.664-.621-4.3 1.24C16.046 4.747 13.087 8.686 12 10.8z"/>
</svg>
